<svg id="mermaid-_r_pl_" width="2428.5" xmlns="http://www.w3.org/2000/svg" height="1807" viewBox="-50 -10 2428.5 1807" role="graphics-document document" aria-roledescription="sequence"><g><rect x="2178.5" y="1721" fill="#eaeaea" stroke="#666" width="150" height="65" name="LLM" rx="3" ry="3" class="actor actor-bottom"></rect><text x="2253.5" y="1753.5" dominant-baseline="central" alignment-baseline="central" class="actor actor-box" style="text-anchor: middle; font-size: 16px; font-weight: 400;"><tspan x="2253.5" dy="0">gpt-oss:120b</tspan></text></g><g><rect x="1956.5" y="1721" fill="#eaeaea" stroke="#666" width="150" height="65" name="OLL" rx="3" ry="3" class="actor actor-bottom"></rect><text x="2031.5" y="1753.5" dominant-baseline="central" alignment-baseline="central" class="actor actor-box" style="text-anchor: middle; font-size: 16px; font-weight: 400;"><tspan x="2031.5" dy="0">Ollama Runtime</tspan></text></g><g><rect x="1687.5" y="1721" fill="#eaeaea" stroke="#666" width="219" height="65" name="SCM" rx="3" ry="3" class="actor actor-bottom"></rect><text x="1797" y="1753.5" dominant-baseline="central" alignment-baseline="central" class="actor actor-box" style="text-anchor: middle; font-size: 16px; font-weight: 400;"><tspan x="1797" dy="-8">SCM / Prisma AIRS Console</tspan></text><text x="1797" y="1753.5" dominant-baseline="central" alignment-baseline="central" class="actor actor-box" style="text-anchor: middle; font-size: 16px; font-weight: 400;"><tspan x="1797" dy="8">(Transactions &amp; Violations)</tspan></text></g><g><rect x="1328.5" y="1721" fill="#eaeaea" stroke="#666" width="189" height="65" name="AIRS" rx="3" ry="3" class="actor actor-bottom"></rect><text x="1423" y="1753.5" dominant-baseline="central" alignment-baseline="central" class="actor actor-box" style="text-anchor: middle; font-size: 16px; font-weight: 400;"><tspan x="1423" dy="-8">Prisma AIRS Scan API</tspan></text><text x="1423" y="1753.5" dominant-baseline="central" alignment-baseline="central" class="actor actor-box" style="text-anchor: middle; font-size: 16px; font-weight: 400;"><tspan x="1423" dy="8">(/v1/scan/sync/request)</tspan></text></g><g><rect x="881.5" y="1721" fill="#eaeaea" stroke="#666" width="219" height="65" name="OF" rx="3" ry="3" class="actor actor-bottom"></rect><text x="991" y="1753.5" dominant-baseline="central" alignment-baseline="central" class="actor actor-box" style="text-anchor: middle; font-size: 16px; font-weight: 400;"><tspan x="991" dy="-8">Open WebUI Filter Function</tspan></text><text x="991" y="1753.5" dominant-baseline="central" alignment-baseline="central" class="actor actor-box" style="text-anchor: middle; font-size: 16px; font-weight: 400;"><tspan x="991" dy="8">(AIRS Intercept)</tspan></text></g><g><rect x="460" y="1721" fill="#eaeaea" stroke="#666" width="206" height="65" name="OW" rx="3" ry="3" class="actor actor-bottom"></rect><text x="563" y="1753.5" dominant-baseline="central" alignment-baseline="central" class="actor actor-box" style="text-anchor: middle; font-size: 16px; font-weight: 400;"><tspan x="563" dy="0">Open WebUI (Browser/UI)</tspan></text></g><g></g><g><line id="actor6" x1="2253.5" y1="65" x2="2253.5" y2="1721" class="actor-line 200" stroke-width="0.5px" stroke="#999" name="LLM"></line><g id="root-6"><rect x="2178.5" y="0" fill="#eaeaea" stroke="#666" width="150" height="65" name="LLM" rx="3" ry="3" class="actor actor-top"></rect><text x="2253.5" y="32.5" dominant-baseline="central" alignment-baseline="central" class="actor actor-box" style="text-anchor: middle; font-size: 16px; font-weight: 400;"><tspan x="2253.5" dy="0">gpt-oss:120b</tspan></text></g></g><g><line id="actor5" x1="2031.5" y1="65" x2="2031.5" y2="1721" class="actor-line 200" stroke-width="0.5px" stroke="#999" name="OLL"></line><g id="root-5"><rect x="1956.5" y="0" fill="#eaeaea" stroke="#666" width="150" height="65" name="OLL" rx="3" ry="3" class="actor actor-top"></rect><text x="2031.5" y="32.5" dominant-baseline="central" alignment-baseline="central" class="actor actor-box" style="text-anchor: middle; font-size: 16px; font-weight: 400;"><tspan x="2031.5" dy="0">Ollama Runtime</tspan></text></g></g><g><line id="actor4" x1="1797" y1="65" x2="1797" y2="1721" class="actor-line 200" stroke-width="0.5px" stroke="#999" name="SCM"></line><g id="root-4"><rect x="1687.5" y="0" fill="#eaeaea" stroke="#666" width="219" height="65" name="SCM" rx="3" ry="3" class="actor actor-top"></rect><text x="1797" y="32.5" dominant-baseline="central" alignment-baseline="central" class="actor actor-box" style="text-anchor: middle; font-size: 16px; font-weight: 400;"><tspan x="1797" dy="-8">SCM / Prisma AIRS Console</tspan></text><text x="1797" y="32.5" dominant-baseline="central" alignment-baseline="central" class="actor actor-box" style="text-anchor: middle; font-size: 16px; font-weight: 400;"><tspan x="1797" dy="8">(Transactions &amp; Violations)</tspan></text></g></g><g><line id="actor3" x1="1423" y1="65" x2="1423" y2="1721" class="actor-line 200" stroke-width="0.5px" stroke="#999" name="AIRS"></line><g id="root-3"><rect x="1328.5" y="0" fill="#eaeaea" stroke="#666" width="189" height="65" name="AIRS" rx="3" ry="3" class="actor actor-top"></rect><text x="1423" y="32.5" dominant-baseline="central" alignment-baseline="central" class="actor actor-box" style="text-anchor: middle; font-size: 16px; font-weight: 400;"><tspan x="1423" dy="-8">Prisma AIRS Scan API</tspan></text><text x="1423" y="32.5" dominant-baseline="central" alignment-baseline="central" class="actor actor-box" style="text-anchor: middle; font-size: 16px; font-weight: 400;"><tspan x="1423" dy="8">(/v1/scan/sync/request)</tspan></text></g></g><g><line id="actor2" x1="991" y1="65" x2="991" y2="1721" class="actor-line 200" stroke-width="0.5px" stroke="#999" name="OF"></line><g id="root-2"><rect x="881.5" y="0" fill="#eaeaea" stroke="#666" width="219" height="65" name="OF" rx="3" ry="3" class="actor actor-top"></rect><text x="991" y="32.5" dominant-baseline="central" alignment-baseline="central" class="actor actor-box" style="text-anchor: middle; font-size: 16px; font-weight: 400;"><tspan x="991" dy="-8">Open WebUI Filter Function</tspan></text><text x="991" y="32.5" dominant-baseline="central" alignment-baseline="central" class="actor actor-box" style="text-anchor: middle; font-size: 16px; font-weight: 400;"><tspan x="991" dy="8">(AIRS Intercept)</tspan></text></g></g><g><line id="actor1" x1="563" y1="65" x2="563" y2="1721" class="actor-line 200" stroke-width="0.5px" stroke="#999" name="OW"></line><g id="root-1"><rect x="460" y="0" fill="#eaeaea" stroke="#666" width="206" height="65" name="OW" rx="3" ry="3" class="actor actor-top"></rect><text x="563" y="32.5" dominant-baseline="central" alignment-baseline="central" class="actor actor-box" style="text-anchor: middle; font-size: 16px; font-weight: 400;"><tspan x="563" dy="0">Open WebUI (Browser/UI)</tspan></text></g></g><g><line id="actor0" x1="75" y1="80" x2="75" y2="1721" class="actor-line 200" stroke-width="0.5px" stroke="#999" name="User"></line></g><style>#mermaid-_r_pl_{font-family:"trebuchet ms",verdana,arial,sans-serif;font-size:16px;fill:#000000;}@keyframes edge-animation-frame{from{stroke-dashoffset:0;}}@keyframes dash{to{stroke-dashoffset:0;}}#mermaid-_r_pl_ .edge-animation-slow{stroke-dasharray:9,5!important;stroke-dashoffset:900;animation:dash 50s linear infinite;stroke-linecap:round;}#mermaid-_r_pl_ .edge-animation-fast{stroke-dasharray:9,5!important;stroke-dashoffset:900;animation:dash 20s linear infinite;stroke-linecap:round;}#mermaid-_r_pl_ .error-icon{fill:#552222;}#mermaid-_r_pl_ .error-text{fill:#552222;stroke:#552222;}#mermaid-_r_pl_ .edge-thickness-normal{stroke-width:1px;}#mermaid-_r_pl_ .edge-thickness-thick{stroke-width:3.5px;}#mermaid-_r_pl_ .edge-pattern-solid{stroke-dasharray:0;}#mermaid-_r_pl_ .edge-thickness-invisible{stroke-width:0;fill:none;}#mermaid-_r_pl_ .edge-pattern-dashed{stroke-dasharray:3;}#mermaid-_r_pl_ .edge-pattern-dotted{stroke-dasharray:2;}#mermaid-_r_pl_ .marker{fill:#666;stroke:#666;}#mermaid-_r_pl_ .marker.cross{stroke:#666;}#mermaid-_r_pl_ svg{font-family:"trebuchet ms",verdana,arial,sans-serif;font-size:16px;}#mermaid-_r_pl_ p{margin:0;}#mermaid-_r_pl_ .actor{stroke:hsl(0, 0%, 83%);fill:#eee;}#mermaid-_r_pl_ text.actor&gt;tspan{fill:#333;stroke:none;}#mermaid-_r_pl_ .actor-line{stroke:hsl(0, 0%, 83%);}#mermaid-_r_pl_ .innerArc{stroke-width:1.5;stroke-dasharray:none;}#mermaid-_r_pl_ .messageLine0{stroke-width:1.5;stroke-dasharray:none;stroke:#333;}#mermaid-_r_pl_ .messageLine1{stroke-width:1.5;stroke-dasharray:2,2;stroke:#333;}#mermaid-_r_pl_ #arrowhead path{fill:#333;stroke:#333;}#mermaid-_r_pl_ .sequenceNumber{fill:white;}#mermaid-_r_pl_ #sequencenumber{fill:#333;}#mermaid-_r_pl_ #crosshead path{fill:#333;stroke:#333;}#mermaid-_r_pl_ .messageText{fill:#333;stroke:none;}#mermaid-_r_pl_ .labelBox{stroke:hsl(0, 0%, 83%);fill:#eee;}#mermaid-_r_pl_ .labelText,#mermaid-_r_pl_ .labelText&gt;tspan{fill:#333;stroke:none;}#mermaid-_r_pl_ .loopText,#mermaid-_r_pl_ .loopText&gt;tspan{fill:#333;stroke:none;}#mermaid-_r_pl_ .loopLine{stroke-width:2px;stroke-dasharray:2,2;stroke:hsl(0, 0%, 83%);fill:hsl(0, 0%, 83%);}#mermaid-_r_pl_ .note{stroke:#999;fill:#666;}#mermaid-_r_pl_ .noteText,#mermaid-_r_pl_ .noteText&gt;tspan{fill:#fff;stroke:none;}#mermaid-_r_pl_ .activation0{fill:#f4f4f4;stroke:#666;}#mermaid-_r_pl_ .activation1{fill:#f4f4f4;stroke:#666;}#mermaid-_r_pl_ .activation2{fill:#f4f4f4;stroke:#666;}#mermaid-_r_pl_ .actorPopupMenu{position:absolute;}#mermaid-_r_pl_ .actorPopupMenuPanel{position:absolute;fill:#eee;box-shadow:0px 8px 16px 0px rgba(0,0,0,0.2);filter:drop-shadow(3px 5px 2px rgb(0 0 0 / 0.4));}#mermaid-_r_pl_ .actor-man line{stroke:hsl(0, 0%, 83%);fill:#eee;}#mermaid-_r_pl_ .actor-man circle,#mermaid-_r_pl_ line{stroke:hsl(0, 0%, 83%);fill:#eee;stroke-width:2px;}#mermaid-_r_pl_ :root{--mermaid-font-family:"trebuchet ms",verdana,arial,sans-serif;}</style><g></g><defs><symbol id="computer" width="24" height="24"><path transform="scale(.5)" d="M2 2v13h20v-13h-20zm18 11h-16v-9h16v9zm-10.228 6l.466-1h3.524l.467 1h-4.457zm14.228 3h-24l2-6h2.104l-1.33 4h18.45l-1.297-4h2.073l2 6zm-5-10h-14v-7h14v7z"></path></symbol></defs><defs><symbol id="database" fill-rule="evenodd" clip-rule="evenodd"><path transform="scale(.5)" d="M12.258.001l.256.004.255.005.253.008.251.01.249.012.247.015.246.016.242.019.241.02.239.023.236.024.233.027.231.028.229.031.225.032.223.034.22.036.217.038.214.04.211.041.208.043.205.045.201.046.198.048.194.05.191.051.187.053.183.054.18.056.175.057.172.059.168.06.163.061.16.063.155.064.15.066.074.033.073.033.071.034.07.034.069.035.068.035.067.035.066.035.064.036.064.036.062.036.06.036.06.037.058.037.058.037.055.038.055.038.053.038.052.038.051.039.05.039.048.039.047.039.045.04.044.04.043.04.041.04.04.041.039.041.037.041.036.041.034.041.033.042.032.042.03.042.029.042.027.042.026.043.024.043.023.043.021.043.02.043.018.044.017.043.015.044.013.044.012.044.011.045.009.044.007.045.006.045.004.045.002.045.001.045v17l-.001.045-.002.045-.004.045-.006.045-.007.045-.009.044-.011.045-.012.044-.013.044-.015.044-.017.043-.018.044-.02.043-.021.043-.023.043-.024.043-.026.043-.027.042-.029.042-.03.042-.032.042-.033.042-.034.041-.036.041-.037.041-.039.041-.04.041-.041.04-.043.04-.044.04-.045.04-.047.039-.048.039-.05.039-.051.039-.052.038-.053.038-.055.038-.055.038-.058.037-.058.037-.06.037-.06.036-.062.036-.064.036-.064.036-.066.035-.067.035-.068.035-.069.035-.07.034-.071.034-.073.033-.074.033-.15.066-.155.064-.16.063-.163.061-.168.06-.172.059-.175.057-.18.056-.183.054-.187.053-.191.051-.194.05-.198.048-.201.046-.205.045-.208.043-.211.041-.214.04-.217.038-.22.036-.223.034-.225.032-.229.031-.231.028-.233.027-.236.024-.239.023-.241.02-.242.019-.246.016-.247.015-.249.012-.251.01-.253.008-.255.005-.256.004-.258.001-.258-.001-.256-.004-.255-.005-.253-.008-.251-.01-.249-.012-.247-.015-.245-.016-.243-.019-.241-.02-.238-.023-.236-.024-.234-.027-.231-.028-.228-.031-.226-.032-.223-.034-.22-.036-.217-.038-.214-.04-.211-.041-.208-.043-.204-.045-.201-.046-.198-.048-.195-.05-.19-.051-.187-.053-.184-.054-.179-.056-.176-.057-.172-.059-.167-.06-.164-.061-.159-.063-.155-.064-.151-.066-.074-.033-.072-.033-.072-.034-.07-.034-.069-.035-.068-.035-.067-.035-.066-.035-.064-.036-.063-.036-.062-.036-.061-.036-.06-.037-.058-.037-.057-.037-.056-.038-.055-.038-.053-.038-.052-.038-.051-.039-.049-.039-.049-.039-.046-.039-.046-.04-.044-.04-.043-.04-.041-.04-.04-.041-.039-.041-.037-.041-.036-.041-.034-.041-.033-.042-.032-.042-.03-.042-.029-.042-.027-.042-.026-.043-.024-.043-.023-.043-.021-.043-.02-.043-.018-.044-.017-.043-.015-.044-.013-.044-.012-.044-.011-.045-.009-.044-.007-.045-.006-.045-.004-.045-.002-.045-.001-.045v-17l.001-.045.002-.045.004-.045.006-.045.007-.045.009-.044.011-.045.012-.044.013-.044.015-.044.017-.043.018-.044.02-.043.021-.043.023-.043.024-.043.026-.043.027-.042.029-.042.03-.042.032-.042.033-.042.034-.041.036-.041.037-.041.039-.041.04-.041.041-.04.043-.04.044-.04.046-.04.046-.039.049-.039.049-.039.051-.039.052-.038.053-.038.055-.038.056-.038.057-.037.058-.037.06-.037.061-.036.062-.036.063-.036.064-.036.066-.035.067-.035.068-.035.069-.035.07-.034.072-.034.072-.033.074-.033.151-.066.155-.064.159-.063.164-.061.167-.06.172-.059.176-.057.179-.056.184-.054.187-.053.19-.051.195-.05.198-.048.201-.046.204-.045.208-.043.211-.041.214-.04.217-.038.22-.036.223-.034.226-.032.228-.031.231-.028.234-.027.236-.024.238-.023.241-.02.243-.019.245-.016.247-.015.249-.012.251-.01.253-.008.255-.005.256-.004.258-.001.258.001zm-9.258 20.499v.01l.001.021.003.021.004.022.005.021.006.022.007.022.009.023.01.022.011.023.012.023.013.023.015.023.016.024.017.023.018.024.019.024.021.024.022.025.023.024.024.025.052.049.056.05.061.051.066.051.07.051.075.051.079.052.084.052.088.052.092.052.097.052.102.051.105.052.11.052.114.051.119.051.123.051.127.05.131.05.135.05.139.048.144.049.147.047.152.047.155.047.16.045.163.045.167.043.171.043.176.041.178.041.183.039.187.039.19.037.194.035.197.035.202.033.204.031.209.03.212.029.216.027.219.025.222.024.226.021.23.02.233.018.236.016.24.015.243.012.246.01.249.008.253.005.256.004.259.001.26-.001.257-.004.254-.005.25-.008.247-.011.244-.012.241-.014.237-.016.233-.018.231-.021.226-.021.224-.024.22-.026.216-.027.212-.028.21-.031.205-.031.202-.034.198-.034.194-.036.191-.037.187-.039.183-.04.179-.04.175-.042.172-.043.168-.044.163-.045.16-.046.155-.046.152-.047.148-.048.143-.049.139-.049.136-.05.131-.05.126-.05.123-.051.118-.052.114-.051.11-.052.106-.052.101-.052.096-.052.092-.052.088-.053.083-.051.079-.052.074-.052.07-.051.065-.051.06-.051.056-.05.051-.05.023-.024.023-.025.021-.024.02-.024.019-.024.018-.024.017-.024.015-.023.014-.024.013-.023.012-.023.01-.023.01-.022.008-.022.006-.022.006-.022.004-.022.004-.021.001-.021.001-.021v-4.127l-.077.055-.08.053-.083.054-.085.053-.087.052-.09.052-.093.051-.095.05-.097.05-.1.049-.102.049-.105.048-.106.047-.109.047-.111.046-.114.045-.115.045-.118.044-.12.043-.122.042-.124.042-.126.041-.128.04-.13.04-.132.038-.134.038-.135.037-.138.037-.139.035-.142.035-.143.034-.144.033-.147.032-.148.031-.15.03-.151.03-.153.029-.154.027-.156.027-.158.026-.159.025-.161.024-.162.023-.163.022-.165.021-.166.02-.167.019-.169.018-.169.017-.171.016-.173.015-.173.014-.175.013-.175.012-.177.011-.178.01-.179.008-.179.008-.181.006-.182.005-.182.004-.184.003-.184.002h-.37l-.184-.002-.184-.003-.182-.004-.182-.005-.181-.006-.179-.008-.179-.008-.178-.01-.176-.011-.176-.012-.175-.013-.173-.014-.172-.015-.171-.016-.17-.017-.169-.018-.167-.019-.166-.02-.165-.021-.163-.022-.162-.023-.161-.024-.159-.025-.157-.026-.156-.027-.155-.027-.153-.029-.151-.03-.15-.03-.148-.031-.146-.032-.145-.033-.143-.034-.141-.035-.14-.035-.137-.037-.136-.037-.134-.038-.132-.038-.13-.04-.128-.04-.126-.041-.124-.042-.122-.042-.12-.044-.117-.043-.116-.045-.113-.045-.112-.046-.109-.047-.106-.047-.105-.048-.102-.049-.1-.049-.097-.05-.095-.05-.093-.052-.09-.051-.087-.052-.085-.053-.083-.054-.08-.054-.077-.054v4.127zm0-5.654v.011l.001.021.003.021.004.021.005.022.006.022.007.022.009.022.01.022.011.023.012.023.013.023.015.024.016.023.017.024.018.024.019.024.021.024.022.024.023.025.024.024.052.05.056.05.061.05.066.051.07.051.075.052.079.051.084.052.088.052.092.052.097.052.102.052.105.052.11.051.114.051.119.052.123.05.127.051.131.05.135.049.139.049.144.048.147.048.152.047.155.046.16.045.163.045.167.044.171.042.176.042.178.04.183.04.187.038.19.037.194.036.197.034.202.033.204.032.209.03.212.028.216.027.219.025.222.024.226.022.23.02.233.018.236.016.24.014.243.012.246.01.249.008.253.006.256.003.259.001.26-.001.257-.003.254-.006.25-.008.247-.01.244-.012.241-.015.237-.016.233-.018.231-.02.226-.022.224-.024.22-.025.216-.027.212-.029.21-.03.205-.032.202-.033.198-.035.194-.036.191-.037.187-.039.183-.039.179-.041.175-.042.172-.043.168-.044.163-.045.16-.045.155-.047.152-.047.148-.048.143-.048.139-.05.136-.049.131-.05.126-.051.123-.051.118-.051.114-.052.11-.052.106-.052.101-.052.096-.052.092-.052.088-.052.083-.052.079-.052.074-.051.07-.052.065-.051.06-.05.056-.051.051-.049.023-.025.023-.024.021-.025.02-.024.019-.024.018-.024.017-.024.015-.023.014-.023.013-.024.012-.022.01-.023.01-.023.008-.022.006-.022.006-.022.004-.021.004-.022.001-.021.001-.021v-4.139l-.077.054-.08.054-.083.054-.085.052-.087.053-.09.051-.093.051-.095.051-.097.05-.1.049-.102.049-.105.048-.106.047-.109.047-.111.046-.114.045-.115.044-.118.044-.12.044-.122.042-.124.042-.126.041-.128.04-.13.039-.132.039-.134.038-.135.037-.138.036-.139.036-.142.035-.143.033-.144.033-.147.033-.148.031-.15.03-.151.03-.153.028-.154.028-.156.027-.158.026-.159.025-.161.024-.162.023-.163.022-.165.021-.166.02-.167.019-.169.018-.169.017-.171.016-.173.015-.173.014-.175.013-.175.012-.177.011-.178.009-.179.009-.179.007-.181.007-.182.005-.182.004-.184.003-.184.002h-.37l-.184-.002-.184-.003-.182-.004-.182-.005-.181-.007-.179-.007-.179-.009-.178-.009-.176-.011-.176-.012-.175-.013-.173-.014-.172-.015-.171-.016-.17-.017-.169-.018-.167-.019-.166-.02-.165-.021-.163-.022-.162-.023-.161-.024-.159-.025-.157-.026-.156-.027-.155-.028-.153-.028-.151-.03-.15-.03-.148-.031-.146-.033-.145-.033-.143-.033-.141-.035-.14-.036-.137-.036-.136-.037-.134-.038-.132-.039-.13-.039-.128-.04-.126-.041-.124-.042-.122-.043-.12-.043-.117-.044-.116-.044-.113-.046-.112-.046-.109-.046-.106-.047-.105-.048-.102-.049-.1-.049-.097-.05-.095-.051-.093-.051-.09-.051-.087-.053-.085-.052-.083-.054-.08-.054-.077-.054v4.139zm0-5.666v.011l.001.02.003.022.004.021.005.022.006.021.007.022.009.023.01.022.011.023.012.023.013.023.015.023.016.024.017.024.018.023.019.024.021.025.022.024.023.024.024.025.052.05.056.05.061.05.066.051.07.051.075.052.079.051.084.052.088.052.092.052.097.052.102.052.105.051.11.052.114.051.119.051.123.051.127.05.131.05.135.05.139.049.144.048.147.048.152.047.155.046.16.045.163.045.167.043.171.043.176.042.178.04.183.04.187.038.19.037.194.036.197.034.202.033.204.032.209.03.212.028.216.027.219.025.222.024.226.021.23.02.233.018.236.017.24.014.243.012.246.01.249.008.253.006.256.003.259.001.26-.001.257-.003.254-.006.25-.008.247-.01.244-.013.241-.014.237-.016.233-.018.231-.02.226-.022.224-.024.22-.025.216-.027.212-.029.21-.03.205-.032.202-.033.198-.035.194-.036.191-.037.187-.039.183-.039.179-.041.175-.042.172-.043.168-.044.163-.045.16-.045.155-.047.152-.047.148-.048.143-.049.139-.049.136-.049.131-.051.126-.05.123-.051.118-.052.114-.051.11-.052.106-.052.101-.052.096-.052.092-.052.088-.052.083-.052.079-.052.074-.052.07-.051.065-.051.06-.051.056-.05.051-.049.023-.025.023-.025.021-.024.02-.024.019-.024.018-.024.017-.024.015-.023.014-.024.013-.023.012-.023.01-.022.01-.023.008-.022.006-.022.006-.022.004-.022.004-.021.001-.021.001-.021v-4.153l-.077.054-.08.054-.083.053-.085.053-.087.053-.09.051-.093.051-.095.051-.097.05-.1.049-.102.048-.105.048-.106.048-.109.046-.111.046-.114.046-.115.044-.118.044-.12.043-.122.043-.124.042-.126.041-.128.04-.13.039-.132.039-.134.038-.135.037-.138.036-.139.036-.142.034-.143.034-.144.033-.147.032-.148.032-.15.03-.151.03-.153.028-.154.028-.156.027-.158.026-.159.024-.161.024-.162.023-.163.023-.165.021-.166.02-.167.019-.169.018-.169.017-.171.016-.173.015-.173.014-.175.013-.175.012-.177.01-.178.01-.179.009-.179.007-.181.006-.182.006-.182.004-.184.003-.184.001-.185.001-.185-.001-.184-.001-.184-.003-.182-.004-.182-.006-.181-.006-.179-.007-.179-.009-.178-.01-.176-.01-.176-.012-.175-.013-.173-.014-.172-.015-.171-.016-.17-.017-.169-.018-.167-.019-.166-.02-.165-.021-.163-.023-.162-.023-.161-.024-.159-.024-.157-.026-.156-.027-.155-.028-.153-.028-.151-.03-.15-.03-.148-.032-.146-.032-.145-.033-.143-.034-.141-.034-.14-.036-.137-.036-.136-.037-.134-.038-.132-.039-.13-.039-.128-.041-.126-.041-.124-.041-.122-.043-.12-.043-.117-.044-.116-.044-.113-.046-.112-.046-.109-.046-.106-.048-.105-.048-.102-.048-.1-.05-.097-.049-.095-.051-.093-.051-.09-.052-.087-.052-.085-.053-.083-.053-.08-.054-.077-.054v4.153zm8.74-8.179l-.257.004-.254.005-.25.008-.247.011-.244.012-.241.014-.237.016-.233.018-.231.021-.226.022-.224.023-.22.026-.216.027-.212.028-.21.031-.205.032-.202.033-.198.034-.194.036-.191.038-.187.038-.183.04-.179.041-.175.042-.172.043-.168.043-.163.045-.16.046-.155.046-.152.048-.148.048-.143.048-.139.049-.136.05-.131.05-.126.051-.123.051-.118.051-.114.052-.11.052-.106.052-.101.052-.096.052-.092.052-.088.052-.083.052-.079.052-.074.051-.07.052-.065.051-.06.05-.056.05-.051.05-.023.025-.023.024-.021.024-.02.025-.019.024-.018.024-.017.023-.015.024-.014.023-.013.023-.012.023-.01.023-.01.022-.008.022-.006.023-.006.021-.004.022-.004.021-.001.021-.001.021.001.021.001.021.004.021.004.022.006.021.006.023.008.022.01.022.01.023.012.023.013.023.014.023.015.024.017.023.018.024.019.024.02.025.021.024.023.024.023.025.051.05.056.05.06.05.065.051.07.052.074.051.079.052.083.052.088.052.092.052.096.052.101.052.106.052.11.052.114.052.118.051.123.051.126.051.131.05.136.05.139.049.143.048.148.048.152.048.155.046.16.046.163.045.168.043.172.043.175.042.179.041.183.04.187.038.191.038.194.036.198.034.202.033.205.032.21.031.212.028.216.027.22.026.224.023.226.022.231.021.233.018.237.016.241.014.244.012.247.011.25.008.254.005.257.004.26.001.26-.001.257-.004.254-.005.25-.008.247-.011.244-.012.241-.014.237-.016.233-.018.231-.021.226-.022.224-.023.22-.026.216-.027.212-.028.21-.031.205-.032.202-.033.198-.034.194-.036.191-.038.187-.038.183-.04.179-.041.175-.042.172-.043.168-.043.163-.045.16-.046.155-.046.152-.048.148-.048.143-.048.139-.049.136-.05.131-.05.126-.051.123-.051.118-.051.114-.052.11-.052.106-.052.101-.052.096-.052.092-.052.088-.052.083-.052.079-.052.074-.051.07-.052.065-.051.06-.05.056-.05.051-.05.023-.025.023-.024.021-.024.02-.025.019-.024.018-.024.017-.023.015-.024.014-.023.013-.023.012-.023.01-.023.01-.022.008-.022.006-.023.006-.021.004-.022.004-.021.001-.021.001-.021-.001-.021-.001-.021-.004-.021-.004-.022-.006-.021-.006-.023-.008-.022-.01-.022-.01-.023-.012-.023-.013-.023-.014-.023-.015-.024-.017-.023-.018-.024-.019-.024-.02-.025-.021-.024-.023-.024-.023-.025-.051-.05-.056-.05-.06-.05-.065-.051-.07-.052-.074-.051-.079-.052-.083-.052-.088-.052-.092-.052-.096-.052-.101-.052-.106-.052-.11-.052-.114-.052-.118-.051-.123-.051-.126-.051-.131-.05-.136-.05-.139-.049-.143-.048-.148-.048-.152-.048-.155-.046-.16-.046-.163-.045-.168-.043-.172-.043-.175-.042-.179-.041-.183-.04-.187-.038-.191-.038-.194-.036-.198-.034-.202-.033-.205-.032-.21-.031-.212-.028-.216-.027-.22-.026-.224-.023-.226-.022-.231-.021-.233-.018-.237-.016-.241-.014-.244-.012-.247-.011-.25-.008-.254-.005-.257-.004-.26-.001-.26.001z"></path></symbol></defs><defs><symbol id="clock" width="24" height="24"><path transform="scale(.5)" d="M12 2c5.514 0 10 4.486 10 10s-4.486 10-10 10-10-4.486-10-10 4.486-10 10-10zm0-2c-6.627 0-12 5.373-12 12s5.373 12 12 12 12-5.373 12-12-5.373-12-12-12zm5.848 12.459c.202.038.202.333.001.372-1.907.361-6.045 1.111-6.547 1.111-.719 0-1.301-.582-1.301-1.301 0-.512.77-5.447 1.125-7.445.034-.192.312-.181.343.014l.985 6.238 5.394 1.011z"></path></symbol></defs><defs><marker id="arrowhead" refX="7.9" refY="5" markerUnits="userSpaceOnUse" markerWidth="12" markerHeight="12" orient="auto-start-reverse"><path d="M -1 0 L 10 5 L 0 10 z"></path></marker></defs><defs><marker id="crosshead" markerWidth="15" markerHeight="8" orient="auto" refX="4" refY="4.5"><path fill="none" stroke="#000000" stroke-width="1pt" d="M 1,2 L 6,7 M 6,2 L 1,7" style="stroke-dasharray: 0, 0;"></path></marker></defs><defs><marker id="filled-head" refX="15.5" refY="7" markerWidth="20" markerHeight="28" orient="auto"><path d="M 18,7 L9,13 L14,7 L9,1 Z"></path></marker></defs><defs><marker id="sequencenumber" refX="15" refY="15" markerWidth="60" markerHeight="40" orient="auto"><circle cx="15" cy="15" r="6"></circle></marker></defs><g><rect x="851.5" y="190" fill="#EDF2AE" stroke="#666" width="279" height="39" class="note"></rect><text x="991" y="195" text-anchor="middle" dominant-baseline="middle" alignment-baseline="middle" class="noteText" dy="1em" style="font-size: 16px; font-weight: 400;"><tspan x="991">Inlet() = pre-LLM prompt protection</tspan></text></g><g><line x1="848.5" y1="702" x2="1135.5" y2="702" class="loopLine"></line><line x1="1135.5" y1="702" x2="1135.5" y2="873" class="loopLine"></line><line x1="848.5" y1="873" x2="1135.5" y2="873" class="loopLine"></line><line x1="848.5" y1="702" x2="848.5" y2="873" class="loopLine"></line><polygon points="848.5,702 898.5,702 898.5,715 890.1,722 848.5,722" class="labelBox"></polygon><text x="874" y="715" text-anchor="middle" dominant-baseline="middle" alignment-baseline="middle" class="labelText" style="font-size: 16px; font-weight: 400;">opt</text><text x="1017" y="720" text-anchor="middle" class="loopText" style="font-size: 16px; font-weight: 400;"><tspan x="1017">[Prompt masking / rewrite (if</tspan></text><text x="1017" y="738" text-anchor="middle" class="loopText" style="font-size: 16px; font-weight: 400;"><tspan x="1017">returned)]</tspan></text></g><g><rect x="834" y="1168" fill="#EDF2AE" stroke="#666" width="314" height="39" class="note"></rect><text x="991" y="1173" text-anchor="middle" dominant-baseline="middle" alignment-baseline="middle" class="noteText" dy="1em" style="font-size: 16px; font-weight: 400;"><tspan x="991">Outlet() = post-LLM response protection</tspan></text></g><g><line x1="64" y1="1428" x2="1002" y2="1428" class="loopLine"></line><line x1="1002" y1="1428" x2="1002" y2="1681" class="loopLine"></line><line x1="64" y1="1681" x2="1002" y2="1681" class="loopLine"></line><line x1="64" y1="1428" x2="64" y2="1681" class="loopLine"></line><line x1="64" y1="1593" x2="1002" y2="1593" class="loopLine" style="stroke-dasharray: 3, 3;"></line><polygon points="64,1428 114,1428 114,1441 105.6,1448 64,1448" class="labelBox"></polygon><text x="89" y="1441" text-anchor="middle" dominant-baseline="middle" alignment-baseline="middle" class="labelText" style="font-size: 16px; font-weight: 400;">alt</text><text x="558" y="1446" text-anchor="middle" class="loopText" style="font-size: 16px; font-weight: 400;"><tspan x="558">[action == "block"]</tspan></text><text x="533" y="1611" text-anchor="middle" class="loopText" style="font-size: 16px; font-weight: 400;">[action == "allow"]</text></g><g><line x1="54" y1="1123" x2="1808" y2="1123" class="loopLine"></line><line x1="1808" y1="1123" x2="1808" y2="1691" class="loopLine"></line><line x1="54" y1="1691" x2="1808" y2="1691" class="loopLine"></line><line x1="54" y1="1123" x2="54" y2="1691" class="loopLine"></line><polygon points="54,1123 104,1123 104,1136 95.6,1143 54,1143" class="labelBox"></polygon><text x="79" y="1136" text-anchor="middle" dominant-baseline="middle" alignment-baseline="middle" class="labelText" style="font-size: 16px; font-weight: 400;">opt</text><text x="956" y="1141" text-anchor="middle" class="loopText" style="font-size: 16px; font-weight: 400;"><tspan x="956">[Response scan (optional outlet())]</tspan></text></g><g><line x1="44" y1="497" x2="2264.5" y2="497" class="loopLine"></line><line x1="2264.5" y1="497" x2="2264.5" y2="1701" class="loopLine"></line><line x1="44" y1="1701" x2="2264.5" y2="1701" class="loopLine"></line><line x1="44" y1="497" x2="44" y2="1701" class="loopLine"></line><line x1="44" y1="662" x2="2264.5" y2="662" class="loopLine" style="stroke-dasharray: 3, 3;"></line><polygon points="44,497 94,497 94,510 85.6,517 44,517" class="labelBox"></polygon><text x="69" y="510" text-anchor="middle" dominant-baseline="middle" alignment-baseline="middle" class="labelText" style="font-size: 16px; font-weight: 400;">alt</text><text x="1179.25" y="515" text-anchor="middle" class="loopText" style="font-size: 16px; font-weight: 400;"><tspan x="1179.25">[action == "block"]</tspan></text><text x="1154.25" y="680" text-anchor="middle" class="loopText" style="font-size: 16px; font-weight: 400;">[action == "allow"]</text></g><g class="actor-man actor-top" name="User"><line id="actor-man-torso0" x1="75" y1="25" x2="75" y2="45"></line><line id="actor-man-arms0" x1="57" y1="33" x2="93" y2="33"></line><line x1="57" y1="60" x2="75" y2="45"></line><line x1="75" y1="45" x2="91" y2="60"></line><circle cx="75" cy="10" r="15" width="150" height="65"></circle><text x="75" y="67.5" dominant-baseline="central" alignment-baseline="central" class="actor actor-man" style="text-anchor: middle; font-size: 16px; font-weight: 400;"><tspan x="75" dy="0">User</tspan></text></g><text x="318" y="80" text-anchor="middle" dominant-baseline="middle" alignment-baseline="middle" class="messageText" dy="1em" style="font-size: 16px; font-weight: 400;">Type prompt (e.g., includes "SYSTEM MODE", exfil intent)</text><line x1="76" y1="113" x2="559" y2="113" class="messageLine0" stroke-width="2" stroke="none" marker-end="url(#arrowhead)" style="fill: none;"></line><line x1="76" y1="113" x2="76" y2="113" stroke-width="0" marker-start="url(#sequencenumber)"></line><text x="76" y="117" font-family="sans-serif" font-size="12px" text-anchor="middle" class="sequenceNumber">1</text><text x="776" y="128" text-anchor="middle" dominant-baseline="middle" alignment-baseline="middle" class="messageText" dy="1em" style="font-size: 16px; font-weight: 400;">Submit request body</text><text x="776" y="147" text-anchor="middle" dominant-baseline="middle" alignment-baseline="middle" class="messageText" dy="1em" style="font-size: 16px; font-weight: 400;">(messages[], model, metadata)</text><line x1="564" y1="180" x2="987" y2="180" class="messageLine0" stroke-width="2" stroke="none" marker-end="url(#arrowhead)" style="fill: none;"></line><line x1="564" y1="180" x2="564" y2="180" stroke-width="0" marker-start="url(#sequencenumber)"></line><text x="564" y="184" font-family="sans-serif" font-size="12px" text-anchor="middle" class="sequenceNumber">2</text><text x="1206" y="244" text-anchor="middle" dominant-baseline="middle" alignment-baseline="middle" class="messageText" dy="1em" style="font-size: 16px; font-weight: 400;">POST sync scan</text><text x="1206" y="263" text-anchor="middle" dominant-baseline="middle" alignment-baseline="middle" class="messageText" dy="1em" style="font-size: 16px; font-weight: 400;">headers: x-pan-token</text><text x="1206" y="281" text-anchor="middle" dominant-baseline="middle" alignment-baseline="middle" class="messageText" dy="1em" style="font-size: 16px; font-weight: 400;">payload: ai_profile= rteixeira-api-01</text><text x="1206" y="300" text-anchor="middle" dominant-baseline="middle" alignment-baseline="middle" class="messageText" dy="1em" style="font-size: 16px; font-weight: 400;">metadata: app=rteixeira-app-01, env=dev, user_id</text><text x="1206" y="319" text-anchor="middle" dominant-baseline="middle" alignment-baseline="middle" class="messageText" dy="1em" style="font-size: 16px; font-weight: 400;">contents: [{prompt}]</text><line x1="992" y1="353" x2="1419" y2="353" class="messageLine0" stroke-width="2" stroke="none" marker-end="url(#arrowhead)" style="fill: none;"></line><line x1="992" y1="353" x2="992" y2="353" stroke-width="0" marker-start="url(#sequencenumber)"></line><text x="992" y="357" font-family="sans-serif" font-size="12px" text-anchor="middle" class="sequenceNumber">3</text><text x="1209" y="368" text-anchor="middle" dominant-baseline="middle" alignment-baseline="middle" class="messageText" dy="1em" style="font-size: 16px; font-weight: 400;">Scan result JSON</text><text x="1209" y="387" text-anchor="middle" dominant-baseline="middle" alignment-baseline="middle" class="messageText" dy="1em" style="font-size: 16px; font-weight: 400;">(action=allow|block, categories, detections, ids)</text><line x1="1422" y1="420" x2="995" y2="420" class="messageLine1" stroke-width="2" stroke="none" marker-end="url(#arrowhead)" style="stroke-dasharray: 3, 3; fill: none;"></line><line x1="1422" y1="420" x2="1422" y2="420" stroke-width="0" marker-start="url(#sequencenumber)"></line><text x="1422" y="424" font-family="sans-serif" font-size="12px" text-anchor="middle" class="sequenceNumber">4</text><text x="1609" y="435" text-anchor="middle" dominant-baseline="middle" alignment-baseline="middle" class="messageText" dy="1em" style="font-size: 16px; font-weight: 400;">Log transaction + detections</text><text x="1609" y="454" text-anchor="middle" dominant-baseline="middle" alignment-baseline="middle" class="messageText" dy="1em" style="font-size: 16px; font-weight: 400;">(scan_id/session_id, status, policy match)</text><line x1="1424" y1="487" x2="1793" y2="487" class="messageLine1" stroke-width="2" stroke="none" marker-end="url(#arrowhead)" style="stroke-dasharray: 3, 3; fill: none;"></line><line x1="1424" y1="487" x2="1424" y2="487" stroke-width="0" marker-start="url(#sequencenumber)"></line><text x="1424" y="491" font-family="sans-serif" font-size="12px" text-anchor="middle" class="sequenceNumber">5</text><text x="779" y="547" text-anchor="middle" dominant-baseline="middle" alignment-baseline="middle" class="messageText" dy="1em" style="font-size: 16px; font-weight: 400;">Reject request / raise error</text><text x="779" y="566" text-anchor="middle" dominant-baseline="middle" alignment-baseline="middle" class="messageText" dy="1em" style="font-size: 16px; font-weight: 400;">"Blocked by Prisma AIRS policy (prompt scan)."</text><line x1="990" y1="599" x2="567" y2="599" class="messageLine1" stroke-width="2" stroke="none" marker-end="url(#arrowhead)" style="stroke-dasharray: 3, 3; fill: none;"></line><line x1="990" y1="599" x2="990" y2="599" stroke-width="0" marker-start="url(#sequencenumber)"></line><text x="990" y="603" font-family="sans-serif" font-size="12px" text-anchor="middle" class="sequenceNumber">6</text><text x="321" y="614" text-anchor="middle" dominant-baseline="middle" alignment-baseline="middle" class="messageText" dy="1em" style="font-size: 16px; font-weight: 400;">Show blocked banner</text><line x1="562" y1="647" x2="79" y2="647" class="messageLine1" stroke-width="2" stroke="none" marker-end="url(#arrowhead)" style="stroke-dasharray: 3, 3; fill: none;"></line><line x1="562" y1="647" x2="562" y2="647" stroke-width="0" marker-start="url(#sequencenumber)"></line><text x="562" y="651" font-family="sans-serif" font-size="12px" text-anchor="middle" class="sequenceNumber">7</text><text x="992" y="770" text-anchor="middle" dominant-baseline="middle" alignment-baseline="middle" class="messageText" dy="1em" style="font-size: 16px; font-weight: 400;">Replace prompt with masked prompt</text><path d="M 992,803 C 1052,793 1052,833 992,823" class="messageLine0" stroke-width="2" stroke="none" marker-end="url(#arrowhead)" style="fill: none;"></path><line x1="992" y1="803" x2="992" y2="803" stroke-width="0" marker-start="url(#sequencenumber)"></line><text x="992" y="807" font-family="sans-serif" font-size="12px" text-anchor="middle" class="sequenceNumber">8</text><text x="1510" y="888" text-anchor="middle" dominant-baseline="middle" alignment-baseline="middle" class="messageText" dy="1em" style="font-size: 16px; font-weight: 400;">Forward request to Ollama</text><line x1="992" y1="921" x2="2027.5" y2="921" class="messageLine0" stroke-width="2" stroke="none" marker-end="url(#arrowhead)" style="fill: none;"></line><line x1="992" y1="921" x2="992" y2="921" stroke-width="0" marker-start="url(#sequencenumber)"></line><text x="992" y="925" font-family="sans-serif" font-size="12px" text-anchor="middle" class="sequenceNumber">9</text><text x="2141" y="936" text-anchor="middle" dominant-baseline="middle" alignment-baseline="middle" class="messageText" dy="1em" style="font-size: 16px; font-weight: 400;">Generate completion</text><line x1="2032.5" y1="969" x2="2249.5" y2="969" class="messageLine0" stroke-width="2" stroke="none" marker-end="url(#arrowhead)" style="fill: none;"></line><line x1="2032.5" y1="969" x2="2032.5" y2="969" stroke-width="0" marker-start="url(#sequencenumber)"></line><text x="2032.5" y="973" font-family="sans-serif" font-size="12px" text-anchor="middle" class="sequenceNumber">10</text><text x="2144" y="984" text-anchor="middle" dominant-baseline="middle" alignment-baseline="middle" class="messageText" dy="1em" style="font-size: 16px; font-weight: 400;">Response tokens</text><line x1="2252.5" y1="1017" x2="2035.5" y2="1017" class="messageLine1" stroke-width="2" stroke="none" marker-end="url(#arrowhead)" style="stroke-dasharray: 3, 3; fill: none;"></line><line x1="2252.5" y1="1017" x2="2252.5" y2="1017" stroke-width="0" marker-start="url(#sequencenumber)"></line><text x="2252.5" y="1021" font-family="sans-serif" font-size="12px" text-anchor="middle" class="sequenceNumber">11</text><text x="1299" y="1032" text-anchor="middle" dominant-baseline="middle" alignment-baseline="middle" class="messageText" dy="1em" style="font-size: 16px; font-weight: 400;">Final response</text><line x1="2030.5" y1="1065" x2="567" y2="1065" class="messageLine1" stroke-width="2" stroke="none" marker-end="url(#arrowhead)" style="stroke-dasharray: 3, 3; fill: none;"></line><line x1="2030.5" y1="1065" x2="2030.5" y2="1065" stroke-width="0" marker-start="url(#sequencenumber)"></line><text x="2030.5" y="1069" font-family="sans-serif" font-size="12px" text-anchor="middle" class="sequenceNumber">12</text><text x="321" y="1080" text-anchor="middle" dominant-baseline="middle" alignment-baseline="middle" class="messageText" dy="1em" style="font-size: 16px; font-weight: 400;">Display answer</text><line x1="562" y1="1113" x2="79" y2="1113" class="messageLine1" stroke-width="2" stroke="none" marker-end="url(#arrowhead)" style="stroke-dasharray: 3, 3; fill: none;"></line><line x1="562" y1="1113" x2="562" y2="1113" stroke-width="0" marker-start="url(#sequencenumber)"></line><text x="562" y="1117" font-family="sans-serif" font-size="12px" text-anchor="middle" class="sequenceNumber">13</text><text x="776" y="1222" text-anchor="middle" dominant-baseline="middle" alignment-baseline="middle" class="messageText" dy="1em" style="font-size: 16px; font-weight: 400;">Outbound response body</text><line x1="564" y1="1255" x2="987" y2="1255" class="messageLine0" stroke-width="2" stroke="none" marker-end="url(#arrowhead)" style="fill: none;"></line><line x1="564" y1="1255" x2="564" y2="1255" stroke-width="0" marker-start="url(#sequencenumber)"></line><text x="564" y="1259" font-family="sans-serif" font-size="12px" text-anchor="middle" class="sequenceNumber">14</text><text x="1206" y="1270" text-anchor="middle" dominant-baseline="middle" alignment-baseline="middle" class="messageText" dy="1em" style="font-size: 16px; font-weight: 400;">POST sync scan</text><text x="1206" y="1289" text-anchor="middle" dominant-baseline="middle" alignment-baseline="middle" class="messageText" dy="1em" style="font-size: 16px; font-weight: 400;">contents: [{response}]</text><line x1="992" y1="1322" x2="1419" y2="1322" class="messageLine0" stroke-width="2" stroke="none" marker-end="url(#arrowhead)" style="fill: none;"></line><line x1="992" y1="1322" x2="992" y2="1322" stroke-width="0" marker-start="url(#sequencenumber)"></line><text x="992" y="1326" font-family="sans-serif" font-size="12px" text-anchor="middle" class="sequenceNumber">15</text><text x="1209" y="1337" text-anchor="middle" dominant-baseline="middle" alignment-baseline="middle" class="messageText" dy="1em" style="font-size: 16px; font-weight: 400;">action=allow|block (+ findings)</text><line x1="1422" y1="1370" x2="995" y2="1370" class="messageLine1" stroke-width="2" stroke="none" marker-end="url(#arrowhead)" style="stroke-dasharray: 3, 3; fill: none;"></line><line x1="1422" y1="1370" x2="1422" y2="1370" stroke-width="0" marker-start="url(#sequencenumber)"></line><text x="1422" y="1374" font-family="sans-serif" font-size="12px" text-anchor="middle" class="sequenceNumber">16</text><text x="1609" y="1385" text-anchor="middle" dominant-baseline="middle" alignment-baseline="middle" class="messageText" dy="1em" style="font-size: 16px; font-weight: 400;">Log response scan result</text><line x1="1424" y1="1418" x2="1793" y2="1418" class="messageLine1" stroke-width="2" stroke="none" marker-end="url(#arrowhead)" style="stroke-dasharray: 3, 3; fill: none;"></line><line x1="1424" y1="1418" x2="1424" y2="1418" stroke-width="0" marker-start="url(#sequencenumber)"></line><text x="1424" y="1422" font-family="sans-serif" font-size="12px" text-anchor="middle" class="sequenceNumber">17</text><text x="779" y="1478" text-anchor="middle" dominant-baseline="middle" alignment-baseline="middle" class="messageText" dy="1em" style="font-size: 16px; font-weight: 400;">Replace/suppress response</text><text x="779" y="1497" text-anchor="middle" dominant-baseline="middle" alignment-baseline="middle" class="messageText" dy="1em" style="font-size: 16px; font-weight: 400;">"Blocked by Prisma AIRS policy (response scan)."</text><line x1="990" y1="1530" x2="567" y2="1530" class="messageLine1" stroke-width="2" stroke="none" marker-end="url(#arrowhead)" style="stroke-dasharray: 3, 3; fill: none;"></line><line x1="990" y1="1530" x2="990" y2="1530" stroke-width="0" marker-start="url(#sequencenumber)"></line><text x="990" y="1534" font-family="sans-serif" font-size="12px" text-anchor="middle" class="sequenceNumber">18</text><text x="321" y="1545" text-anchor="middle" dominant-baseline="middle" alignment-baseline="middle" class="messageText" dy="1em" style="font-size: 16px; font-weight: 400;">Show blocked/modified output</text><line x1="562" y1="1578" x2="79" y2="1578" class="messageLine1" stroke-width="2" stroke="none" marker-end="url(#arrowhead)" style="stroke-dasharray: 3, 3; fill: none;"></line><line x1="562" y1="1578" x2="562" y2="1578" stroke-width="0" marker-start="url(#sequencenumber)"></line><text x="562" y="1582" font-family="sans-serif" font-size="12px" text-anchor="middle" class="sequenceNumber">19</text><text x="779" y="1638" text-anchor="middle" dominant-baseline="middle" alignment-baseline="middle" class="messageText" dy="1em" style="font-size: 16px; font-weight: 400;">Pass response unchanged</text><line x1="990" y1="1671" x2="567" y2="1671" class="messageLine1" stroke-width="2" stroke="none" marker-end="url(#arrowhead)" style="stroke-dasharray: 3, 3; fill: none;"></line><line x1="990" y1="1671" x2="990" y2="1671" stroke-width="0" marker-start="url(#sequencenumber)"></line><text x="990" y="1675" font-family="sans-serif" font-size="12px" text-anchor="middle" class="sequenceNumber">20</text><g class="actor-man actor-bottom" name="User"><line id="actor-man-torso6" x1="75" y1="1746" x2="75" y2="1766"></line><line id="actor-man-arms6" x1="57" y1="1754" x2="93" y2="1754"></line><line x1="57" y1="1781" x2="75" y2="1766"></line><line x1="75" y1="1766" x2="91" y2="1781"></line><circle cx="75" cy="1731" r="15" width="150" height="65"></circle><text x="75" y="1788.5" dominant-baseline="central" alignment-baseline="central" class="actor actor-man" style="text-anchor: middle; font-size: 16px; font-weight: 400;"><tspan x="75" dy="0">User</tspan></text></g></svg>